<?xml version="1.0" standalone="no"?>
<!DOCTYPE svg PUBLIC "-//W3C//DTD SVG 20010904//EN"
 "http://www.w3.org/TR/2001/REC-SVG-20010904/DTD/svg10.dtd">
<svg version="1.0" xmlns="http://www.w3.org/2000/svg"
 width="512.000000pt" height="512.000000pt" viewBox="0 0 512.000000 512.000000"
 preserveAspectRatio="xMidYMid meet">
<metadata>
Created by potrace 1.14, written by Peter Selinger 2001-2017
</metadata>
<g transform="translate(0.000000,512.000000) scale(0.100000,-0.100000)"
fill="#000000" stroke="none">
<path d="M560 2560 l0 -2000 2000 0 2000 0 0 2000 0 2000 -2000 0 -2000 0 0
-2000z m3800 0 l0 -1800 -1800 0 -1800 0 0 1800 0 1800 1800 0 1800 0 0 -1800z"/>
<path d="M1130 3200 l0 -170 84 0 84 0 26 -72 c15 -40 143 -401 285 -803 l259
-730 147 0 148 0 217 625 c119 343 221 625 226 627 5 1 38 -77 73 -175 35 -97
138 -381 229 -629 l165 -453 143 0 142 0 269 803 268 802 78 3 77 3 0 169 0
170 -385 0 -385 0 0 -170 0 -170 106 0 c105 0 106 0 101 -22 -75 -295 -254
-938 -262 -938 -9 0 -335 895 -343 941 -3 17 4 19 62 19 l66 0 0 170 0 170
-390 0 -390 0 0 -170 0 -170 75 0 c41 0 75 -4 75 -9 0 -7 -302 -830 -335 -914
-4 -10 -12 -16 -18 -14 -7 2 -297 914 -297 935 0 1 41 2 90 2 l90 0 0 170 0
170 -390 0 -390 0 0 -170z"/>
</g>
</svg>
